<svg id="Layer_1" data-name="Layer 1" xmlns="http://www.w3.org/2000/svg" viewBox="0 0 237.78 111.28"><defs><style>.cls-1{stroke:#2d3d38;stroke-miterlimit:10;}</style></defs><title>W-mark</title><path class="cls-1" d="M51.66,164.68c3.72-.45,6.81-.51,9.68-1.32a5.22,5.22,0,0,0,3-3.46,64.6,64.6,0,0,0,1-11.11c.1-8.81,4.35-15.73,9.66-22.21,1.73-2.11,3.23-1.21,4.92.35,1.4,1.29,3.49,1.87,4.81,3.22,2.81,2.9,25.42,17.91,26.94,21.82.58,1.48,2.56,2.41,4.1,3.77.86-1,1.38-2.12,2.16-2.33,3.37-.91,3.41-3.36,3.73-6.19s-.91-4.48-2.1-6.76c-1.73-3.32-.8-7.31.81-10.87a79.56,79.56,0,0,0,3.26-7.9,16,16,0,0,1,12.47-10.31c4.2-.63,8.25-2.19,12.45-2.87,7.56-1.23,15.17-2.21,22.78-3.12,11.46-1.36,22.93-2.58,34.4-3.84,2.08-.22,36.35-5.57,36.78-10.89-7,0-14-.11-21.08,0a109.14,109.14,0,0,0-11.82,1c-3.28.44-18,1.77-22.09,2.1-6.92.57-13.79,1.61-20.71,2.17-8.32.67-16.68.9-25,1.62-6.45.55-12.88,1.42-19.26,2.46a5.71,5.71,0,0,0-3.61,2.84c-2.7,5.84-5.11,11.81-7.54,17.77a40.84,40.84,0,0,0-2.7,7.66c-.57,2.95-1.19,4.4-4.12,1.95-4.61-3.85-9.32-7.59-13.9-11.48-2.74-2.32-5.33-4.82-8-7.26-.67-.63-1.7-1.25-1.83-2-.76-4.47-4-3.78-6.89-3.27-3.21.56-4.77,2.83-5.72,6a62.29,62.29,0,0,1-4.12,9.37c-1.82,3.67-3.8,7.26-6.08,11.58-4.06-7.78-7.76-14.8-11.4-21.84-3.39-6.59-6.62-13.27-10.15-19.78C35.13,89,33,86.8,31.35,84.28c-3.15-5-6.33-10-9.12-15.19C21.11,67,21.16,64.33,20.38,62a38.64,38.64,0,0,0-2.86-6.2,3.35,3.35,0,0,0-2-1.14c-5.16-1.45-10,3.32-9.75,8.64.18,4.43,3.64,6,5.69,8.85,2.62,3.64,5.18,7.36,7.47,11.22,2.63,4.43,5,9,7.34,13.59,2.47,4.74,4.85,9.53,7.24,14.31.17.34,0,.93.26,1.12,6.38,5.17,6,13.71,10.1,20,1.15,1.79,1.39,4.33,2.82,5.75,3.49,3.47.69,6.7.11,10-.45,2.58-2,5.11-1.86,7.62.07,1.74,1.93,3.5,3.19,5.09A47.93,47.93,0,0,0,51.66,164.68Z" transform="translate(-5.27 -53.93)"/></svg>